<svg xmlns="http://www.w3.org/2000/svg" xml:space="preserve" viewBox="0 0 100 100" baseProfile="tiny" version="1.1" y="0px" x="0px" xmlns:xlink="http://www.w3.org/1999/xlink">
	<path d="m1.7-4.6c-0.5 0-0.9-0.2-1.2-0.6s-0.5-0.8-0.5-1.4c0-0.6 0.2-1.1 0.5-1.5s0.7-0.5 1.3-0.5c0.5 0 0.9 0.2 1.2 0.5s0.5 0.9 0.5 1.5c-0.1 0.6-0.2 1.1-0.5 1.5s-0.8 0.5-1.3 0.5zm0-0.7c0.5 0 0.8-0.4 0.8-1.3s-0.2-1.4-0.8-1.4c-0.5 0-0.8 0.5-0.8 1.4s0.3 1.3 0.8 1.3zm4.5-3.3l-4.3 8.6h-0.9l4.3-8.6h0.9zm-0.7 8.7c-0.5 0-0.9-0.2-1.3-0.5s-0.4-0.9-0.4-1.5c0-0.6 0.2-1.1 0.5-1.5s0.7-0.6 1.2-0.6c0.5 0 0.9 0.2 1.2 0.6s0.5 0.9 0.5 1.5c0 0.6-0.2 1.1-0.5 1.5s-0.7 0.5-1.2 0.5zm0-0.7c0.5 0 0.8-0.4 0.8-1.3s-0.3-1.3-0.8-1.3c-0.6 0-0.8 0.4-0.8 1.3s0.2 1.3 0.8 1.3z"/>
</svg>
