<svg xmlns="http://www.w3.org/2000/svg" xml:space="preserve" viewBox="0 0 100 100" baseProfile="tiny" version="1.1" y="0px" x="0px" xmlns:xlink="http://www.w3.org/1999/xlink">
	<path d="m4.7-2.3c-0.3 0.7-0.8 1-1.4 1-0.5 0-0.8-0.2-1.1-0.6s-0.4-1-0.4-1.6c0-0.9 0.2-1.5 0.6-2s0.9-0.7 1.5-0.7c0.5 0 1 0.1 1.5 0.3l-0.2 2.4v0.4c0 0.7 0.1 1 0.4 1 0.4 0 0.6-0.7 0.6-2.2 0-1.1-0.2-1.9-0.7-2.6s-1-0.9-1.8-0.9c-0.9 0-1.6 0.4-2.1 1.1s-0.6 1.8-0.6 3.1c0 1.2 0.3 2.2 0.8 2.8s1.2 1 2.2 1c0.7 0 1.4-0.2 2-0.5v0.8c-0.7 0.4-1.4 0.6-2.1 0.6-1.2 0-2.1-0.4-2.7-1.2s-1-1.9-1-3.4c0-1.6 0.3-2.8 1-3.7s1.5-1.4 2.7-1.4c1 0 1.7 0.4 2.3 1.1s0.8 1.9 0.8 3.2c0 0.9-0.1 1.6-0.4 2.2s-0.6 0.8-1 0.8c-0.5 0-0.8-0.3-0.9-1zm-0.3-3.1c-0.2 0-0.4-0.1-0.6-0.1-0.3 0-0.6 0.2-0.8 0.6s-0.3 0.8-0.3 1.4c0 1 0.2 1.5 0.7 1.5s0.8-0.6 0.8-1.8l0.2-1.6z"/>
</svg>
