<svg xmlns="http://www.w3.org/2000/svg" xml:space="preserve" viewBox="0 0 100 100" baseProfile="tiny" version="1.1" y="0px" x="0px" xmlns:xlink="http://www.w3.org/1999/xlink">
	<path d="m3.5-4.5l1.6 2c0.3-0.5 0.5-1 0.6-1.6h1.1c-0.2 0.9-0.6 1.7-1 2.4l1.4 1.7h-1.3l-0.7-1c-0.7 0.8-1.5 1.1-2.5 1.1-0.7 0-1.3-0.2-1.7-0.6s-0.6-1-0.6-1.7c0-0.5 0.1-1 0.4-1.3s0.7-0.8 1.4-1.2c-0.6-0.8-1-1.4-1-2.1 0-0.6 0.2-1 0.6-1.4s0.9-0.5 1.6-0.5c0.7 0 1.2 0.2 1.5 0.5s0.5 0.8 0.5 1.4c0 0.8-0.6 1.5-1.9 2.3zm1.1 2.8l-1.9-2.3c-0.8 0.4-1.2 1-1.2 1.7 0 0.4 0.1 0.8 0.4 1s0.6 0.4 0.9 0.4c0.6 0.1 1.2-0.2 1.8-0.8zm-1.6-3.6c0.5-0.3 0.9-0.6 1.1-0.8s0.3-0.5 0.3-0.8-0.2-0.5-0.3-0.7-0.5-0.2-0.8-0.2c-0.3 0-0.6 0.1-0.8 0.3s-0.3 0.4-0.3 0.7c0 0.4 0.3 1 0.8 1.5z"/>
</svg>
