<svg xmlns="http://www.w3.org/2000/svg" xml:space="preserve" viewBox="0 0 100 100" baseProfile="tiny" version="1.1" y="0px" x="0px" xmlns:xlink="http://www.w3.org/1999/xlink">
	<path d="m4-0.7v1.3h-0.8v-1.3c-0.9 0.1-1.6 0-2.1-0.3v-1c0.8 0.4 1.5 0.5 2.1 0.5v-2.5c-0.7-0.3-1.3-0.6-1.6-0.9s-0.4-0.7-0.4-1.3c0-0.5 0.2-0.9 0.5-1.3s0.9-0.5 1.5-0.6v-1.1h0.8v1c0.7 0 1.4 0.2 2 0.5l-0.4 0.9c-0.6-0.2-1.1-0.4-1.6-0.4v2.5c0.8 0.3 1.3 0.6 1.6 0.9s0.5 0.7 0.5 1.2c0 1.1-0.7 1.7-2.1 1.9zm-0.8-4.3v-2.2c-0.7 0.1-1 0.5-1 1 0 0.3 0.1 0.5 0.2 0.7s0.4 0.4 0.8 0.5zm0.8 1.3v2.2c0.7-0.1 1.1-0.5 1.1-1.1 0-0.5-0.4-0.9-1.1-1.1z"/>
</svg>
