<svg xmlns="http://www.w3.org/2000/svg" xml:space="preserve" viewBox="0 0 100 100" version="1.1" y="0px" x="0px" xmlns:xlink="http://www.w3.org/1999/xlink">
	<path d="m0.8-8.6h2.6c1.1 0 1.8 0.2 2.3 0.5s0.7 0.9 0.7 1.7c0 0.5-0.2 0.9-0.5 1.2s-0.7 0.6-1.2 0.7v0.1c1.3 0.2 1.9 0.9 1.9 2 0 0.8-0.2 1.4-0.7 1.8s-1.2 0.6-2 0.6h-3.1v-8.6zm1.1 3.7h1.7c0.6 0 1.1-0.1 1.3-0.3s0.4-0.6 0.4-1.1c0-0.5-0.1-0.8-0.4-1s-0.8-0.3-1.5-0.3h-1.5v2.7zm0 0.9v3.1h1.8c1.2 0 1.8-0.5 1.8-1.6 0-1-0.6-1.5-1.9-1.5h-1.7z"/>
</svg>
