<svg xmlns="http://www.w3.org/2000/svg" xml:space="preserve" viewBox="0 0 100 100" baseProfile="tiny" version="1.1" y="0px" x="0px" xmlns:xlink="http://www.w3.org/1999/xlink">
	<path d="m0.8-0.3v-1c0.9 0.3 1.7 0.5 2.5 0.5 1.4 0 2.1-0.5 2.1-1.4 0-0.4-0.1-0.7-0.4-0.9s-0.9-0.5-1.8-0.8c-0.8-0.3-1.4-0.7-1.7-1.1s-0.6-0.9-0.6-1.5c0-0.7 0.3-1.2 0.8-1.6s1.2-0.6 2.1-0.6c0.9 0 1.7 0.2 2.4 0.5l-0.4 1c-0.7-0.4-1.4-0.5-2.1-0.5-1.1 0-1.7 0.4-1.7 1.2 0 0.4 0.1 0.7 0.4 1s0.8 0.5 1.6 0.7c1 0.3 1.6 0.7 1.9 1.1s0.5 0.8 0.5 1.4c0 0.8-0.3 1.3-0.8 1.8s-1.4 0.6-2.3 0.6c-1.1 0-1.9-0.1-2.5-0.4z"/>
</svg>
