<svg xmlns="http://www.w3.org/2000/svg" xml:space="preserve" viewBox="0 0 100 100" baseProfile="tiny" version="1.1" y="0px" x="0px" xmlns:xlink="http://www.w3.org/1999/xlink">
	<path d="m4.1-4.5c1.4 0.2 2.1 0.9 2.1 2.1 0 0.8-0.3 1.4-0.8 1.9s-1.3 0.6-2.4 0.6c-0.9 0-1.7-0.1-2.2-0.4v-1c0.7 0.3 1.4 0.5 2.2 0.5 1.4 0 2.1-0.6 2.1-1.7 0-1-0.7-1.5-2.2-1.5h-0.8v-0.9h0.8c0.6 0 1.1-0.1 1.4-0.4s0.5-0.7 0.5-1.2c0-0.4-0.1-0.7-0.4-0.9s-0.6-0.4-1-0.4c-0.7 0-1.4 0.2-2 0.7l-0.6-0.7c0.7-0.6 1.6-0.9 2.6-0.9 0.8 0 1.4 0.2 1.9 0.6s0.7 0.9 0.7 1.5c0 0.5-0.2 1-0.5 1.4s-0.8 0.6-1.4 0.7z"/>
</svg>
