<svg xmlns="http://www.w3.org/2000/svg" xml:space="preserve" viewBox="0 0 100 100" baseProfile="tiny" version="1.1" y="0px" x="0px" xmlns:xlink="http://www.w3.org/1999/xlink">
	<path d="m5.7-8.6v0.9c-0.3-0.1-0.6-0.1-1-0.1-0.9 0-1.5 0.3-2 0.8s-0.7 1.4-0.7 2.6h0.1c0.4-0.7 1-1 1.8-1s1.4 0.2 1.8 0.7 0.6 1.1 0.6 1.9c0 0.9-0.2 1.6-0.7 2.1s-1.1 0.8-1.9 0.8c-0.9 0-1.5-0.3-2-1s-0.8-1.6-0.8-2.8c0-3.4 1.2-5 3.7-5 0.5 0 0.8 0 1.1 0.1zm-0.4 5.8c0-0.6-0.1-1-0.4-1.3s-0.7-0.4-1.2-0.4-0.9 0.1-1.2 0.5-0.5 0.6-0.5 1c0 0.6 0.2 1.1 0.5 1.5s0.7 0.6 1.2 0.6c0.5 0 0.9-0.2 1.2-0.5s0.4-0.7 0.4-1.4z"/>
</svg>
