<svg xmlns="http://www.w3.org/2000/svg" xml:space="preserve" viewBox="0 0 100 100" baseProfile="tiny" version="1.1" y="0px" x="0px" xmlns:xlink="http://www.w3.org/1999/xlink">
	<path d="m4.5-4.5c1.2 0.6 1.8 1.4 1.8 2.3 0 0.7-0.3 1.2-0.8 1.7s-1.1 0.6-2 0.6c-0.8 0-1.5-0.2-2-0.6s-0.7-1-0.7-1.7c0-1 0.6-1.8 1.7-2.3-0.9-0.6-1.3-1.3-1.3-2.2 0-0.6 0.2-1.1 0.7-1.5s1-0.6 1.7-0.6c0.7 0 1.3 0.2 1.7 0.6s0.7 0.9 0.7 1.6c0 0.9-0.5 1.6-1.5 2.1zm-1.1 0.4c-0.9 0.5-1.4 1.1-1.4 1.9 0 0.9 0.5 1.4 1.6 1.4 0.5 0 0.9-0.1 1.2-0.4s0.4-0.6 0.4-1.1c0-0.4-0.1-0.7-0.4-0.9s-0.6-0.5-1.2-0.8l-0.2-0.1zm0.2-0.9c0.9-0.4 1.4-0.9 1.4-1.6 0-0.4-0.2-0.7-0.4-0.9s-0.6-0.3-1-0.3c-0.4 0-0.7 0.1-1 0.3s-0.4 0.5-0.4 0.9c0 0.4 0.1 0.6 0.3 0.9s0.6 0.5 1.1 0.7z"/>
</svg>
