<svg xmlns="http://www.w3.org/2000/svg" xml:space="preserve" viewBox="0 0 100 100" baseProfile="tiny" version="1.1" y="0px" x="0px" xmlns:xlink="http://www.w3.org/1999/xlink">
	<path d="m5.2 0l-0.2-0.9c-0.3 0.4-0.6 0.7-0.9 0.8s-0.8 0.2-1.3 0.2c-0.6 0-1.1-0.2-1.5-0.5s-0.5-0.8-0.5-1.4c0-1.3 1-2 3-2h1.2v-0.4c0-0.9-0.5-1.4-1.4-1.4-0.6-0.1-1.3 0.1-2 0.4l-0.4-0.8c0.8-0.4 1.6-0.6 2.3-0.6 0.9 0 1.5 0.2 1.9 0.6s0.6 0.8 0.6 1.6v4.4h-0.8zm-0.2-3.1h-1c-0.8 0-1.3 0.1-1.6 0.4s-0.5 0.5-0.5 1c0 0.7 0.4 1 1.2 1 0.6 0 1-0.2 1.4-0.5s0.5-0.8 0.5-1.4v-0.5z"/>
</svg>
