<svg xmlns="http://www.w3.org/2000/svg" xml:space="preserve" viewBox="0 0 100 100" baseProfile="tiny" version="1.1" y="0px" x="0px" xmlns:xlink="http://www.w3.org/1999/xlink">
	<path d="m4.5-0.9c-0.5 0.7-1.1 1-1.9 1s-1.4-0.3-1.8-0.9-0.8-1.4-0.8-2.5c0-1.1 0.2-1.9 0.7-2.5s1.1-0.9 1.8-0.9c0.8 0 1.4 0.3 1.9 0.9h0.1c0-0.5-0.1-0.8-0.1-0.9v-2.6h1.1v9.3h-0.9l-0.1-0.9zm-0.1-2.1v-0.2c0-0.9-0.1-1.5-0.4-1.9s-0.7-0.6-1.3-0.6c-1.1 0-1.6 0.8-1.6 2.5 0 1.6 0.5 2.4 1.6 2.4 0.6 0 1-0.2 1.3-0.5s0.4-0.9 0.4-1.7z"/>
<rect y="-18.2" x="8.1" height="10.7" width="10.8" fill="none"/>
<text font-size="12px" font-family="&apos;DroidSansMono&apos;" transform="translate(8.1068 -9.0534)">w</text>
</svg>
