<svg xmlns="http://www.w3.org/2000/svg" xml:space="preserve" viewBox="0 0 100 100" baseProfile="tiny" version="1.1" y="0px" x="0px" xmlns:xlink="http://www.w3.org/1999/xlink">
	<path d="m6.6-6.4v0.7l-1.2 0.1c0.3 0.3 0.4 0.7 0.4 1.2 0 0.6-0.2 1.1-0.6 1.5s-1 0.6-1.7 0.6h-0.5c-0.4 0.2-0.6 0.4-0.6 0.7s0.3 0.5 0.9 0.5h1.1c0.7 0 1.2 0.2 1.6 0.5s0.5 0.7 0.5 1.3c0 1.5-1.1 2.2-3.3 2.2-0.9 0-1.5-0.2-1.9-0.5s-0.7-0.7-0.7-1.3c0-0.8 0.5-1.4 1.4-1.6-0.4-0.2-0.6-0.5-0.6-0.9s0.3-0.8 0.8-1.1c-0.3-0.2-0.6-0.4-0.8-0.7s-0.3-0.7-0.3-1.1c0-0.7 0.2-1.3 0.6-1.7s1-0.6 1.8-0.6c0.3 0 0.6 0 0.9 0.1h2.2zm-2.5 6.3h-1.1c-0.9 0-1.3 0.4-1.3 1.2 0 0.7 0.5 1 1.6 1 1.5 0 2.3-0.4 2.3-1.3 0-0.3-0.1-0.6-0.3-0.7s-0.7-0.2-1.2-0.2zm-0.6-2.9c0.9 0 1.3-0.4 1.3-1.3s-0.4-1.4-1.3-1.4-1.3 0.4-1.3 1.3c0 0.9 0.4 1.4 1.3 1.4z"/>
</svg>
