<svg xmlns="http://www.w3.org/2000/svg" xml:space="preserve" viewBox="0 0 100 100" baseProfile="tiny" version="1.1" y="0px" x="0px" xmlns:xlink="http://www.w3.org/1999/xlink">
	<path d="m1.2-0.3v-1c0.8 0.3 1.5 0.5 2.2 0.5 1 0 1.6-0.3 1.6-0.9 0-0.2-0.1-0.4-0.3-0.6s-0.7-0.4-1.3-0.6c-1-0.3-1.5-0.7-1.8-0.9s-0.4-0.6-0.4-1c0-0.5 0.2-0.9 0.7-1.3s1-0.5 1.8-0.5c0.8 0 1.5 0.1 2.2 0.4l-0.3 1c-0.8-0.3-1.4-0.5-1.9-0.5-0.9 0-1.4 0.3-1.4 0.8 0 0.2 0.1 0.4 0.3 0.6s0.6 0.3 1.4 0.6c0.8 0.3 1.4 0.6 1.6 0.9s0.4 0.6 0.4 1c0 0.6-0.2 1-0.7 1.4s-1.1 0.5-1.9 0.5c-1 0-1.7-0.1-2.2-0.4z"/>
</svg>
